<svg width="21" height="15" viewBox="0 0 21 15" fill="none" xmlns="http://www.w3.org/2000/svg">
<path d="M1.5006 0.0131426H19.5011C19.6834 0.0137138 19.862 0.0639782 20.0178 0.158525C20.1736 0.253071 20.3007 0.388318 20.3853 0.54971C20.47 0.711102 20.509 0.892528 20.4982 1.07446C20.4875 1.25638 20.4273 1.43193 20.3241 1.58219L11.3239 14.5826C10.9509 15.1216 10.0528 15.1216 9.67883 14.5826L0.678579 1.58219C0.574401 1.43224 0.513308 1.25661 0.501939 1.07438C0.49057 0.892146 0.529358 0.710284 0.614091 0.54855C0.698823 0.386816 0.826259 0.251395 0.982552 0.157002C1.13884 0.0626097 1.31802 0.0128546 1.5006 0.0131426Z" fill="#089BFF"/>
</svg>
