<svg width="73" height="72" viewBox="0 0 73 72" fill="none" xmlns="http://www.w3.org/2000/svg">
<path d="M5.74548 53.7105C4.52255 54.933 3.83533 56.5913 3.83496 58.3205V65.4018C3.83496 66.2664 4.17845 67.0957 4.78987 67.7071C5.40129 68.3185 6.23055 68.662 7.09523 68.662H16.876C17.7407 68.662 18.57 68.3185 19.1814 67.7071C19.7928 67.0957 20.1363 66.2664 20.1363 65.4018V62.1415C20.1363 61.2768 20.4798 60.4476 21.0912 59.8361C21.7026 59.2247 22.5319 58.8812 23.3966 58.8812H26.6568C27.5215 58.8812 28.3508 58.5377 28.9622 57.9263C29.5736 57.3149 29.9171 56.4856 29.9171 55.621V52.3607C29.9171 51.496 30.2606 50.6668 30.872 50.0553C31.4834 49.4439 32.3127 49.1004 33.1773 49.1004H33.7381C35.4673 49.1001 37.1256 48.4128 38.3481 47.1899L41.002 44.5361C45.5332 46.1145 50.466 46.1085 54.9934 44.519C59.5207 42.9294 63.3746 39.8505 65.9246 35.7859C68.4746 31.7213 69.5698 26.9116 69.0308 22.1437C68.4919 17.3758 66.3509 12.9319 62.958 9.53898C59.5651 6.14608 55.1212 4.00505 50.3533 3.46614C45.5854 2.92724 40.7757 4.02237 36.7111 6.57237C32.6465 9.12237 29.5676 12.9763 27.978 17.5036C26.3885 22.031 26.3825 26.9638 27.9609 31.495L5.74548 53.7105Z" stroke="#089BFF" stroke-width="6" stroke-linecap="round" stroke-linejoin="round"/>
<path d="M48.5 29.9971C51.5376 29.9971 54 27.5346 54 24.4971C54 21.4595 51.5376 18.9971 48.5 18.9971C45.4624 18.9971 43 21.4595 43 24.4971C43 27.5346 45.4624 29.9971 48.5 29.9971Z" fill="#089BFF" stroke="#089BFF" stroke-width="3" stroke-linecap="round" stroke-linejoin="round"/>
</svg>
