<svg width="100" height="100" viewBox="0 0 100 100" fill="none" xmlns="http://www.w3.org/2000/svg">
<path d="M38.8889 37.5L46.25 33.8889C47.4537 33.3333 48.7037 33.0556 50 33.0556C51.2963 33.0556 52.5463 33.3333 53.75 33.8889L61.1111 37.5V11.1111H38.8889V37.5ZM27.7778 77.7778C26.2037 77.7778 24.8852 77.2444 23.8222 76.1778C22.7593 75.1111 22.2259 73.7926 22.2222 72.2222C22.2185 70.6518 22.7518 69.3333 23.8222 68.2667C24.8926 67.2 26.2111 66.6667 27.7778 66.6667H44.4444C46.0185 66.6667 47.3389 67.2 48.4056 68.2667C49.4722 69.3333 50.0037 70.6518 50 72.2222C49.9963 73.7926 49.463 75.113 48.4 76.1833C47.337 77.2537 46.0185 77.7852 44.4444 77.7778H27.7778ZM11.1111 100C8.05555 100 5.44074 98.913 3.26667 96.7389C1.09259 94.5648 0.0037037 91.9481 0 88.8889V11.1111C0 8.05555 1.08889 5.44074 3.26667 3.26667C5.44444 1.09259 8.05926 0.0037037 11.1111 0H88.8889C91.9444 0 94.5611 1.08889 96.7389 3.26667C98.9167 5.44444 100.004 8.05926 100 11.1111V88.8889C100 91.9444 98.913 94.5611 96.7389 96.7389C94.5648 98.9167 91.9481 100.004 88.8889 100H11.1111ZM11.1111 88.8889H88.8889V11.1111H72.2222V46.5278C72.2222 48.6574 71.3426 50.2555 69.5833 51.3222C67.8241 52.3889 66.0185 52.4574 64.1667 51.5278L50 44.4444L35.8333 51.5278C33.9815 52.4537 32.1759 52.3833 30.4167 51.3167C28.6574 50.25 27.7778 48.6556 27.7778 46.5333V11.1111H11.1111V88.8889Z" fill="#089BFF"/>
</svg>
