<svg width="75" height="60" viewBox="0 0 75 60" fill="none" xmlns="http://www.w3.org/2000/svg">
<path d="M4.5 11.85C4.5 9.92478 5.26477 8.07845 6.62608 6.71714C7.98738 5.35584 9.83371 4.59106 11.7589 4.59106H62.5711C64.4963 4.59106 66.3426 5.35584 67.7039 6.71714C69.0652 8.07845 69.83 9.92478 69.83 11.85V48.1444C69.83 50.0696 69.0652 51.9159 67.7039 53.2772C66.3426 54.6385 64.4963 55.4033 62.5711 55.4033H11.7589C9.83371 55.4033 7.98738 54.6385 6.62608 53.2772C5.26477 51.9159 4.5 50.0696 4.5 48.1444V11.85Z" stroke="#089BFF" stroke-width="9" stroke-linecap="round" stroke-linejoin="round"/>
<path d="M4.5 11.8499L37.165 33.6265L69.83 11.8499" stroke="#089BFF" stroke-width="9" stroke-linecap="round" stroke-linejoin="round"/>
</svg>
