<svg width="66" height="74" viewBox="0 0 66 74" fill="none" xmlns="http://www.w3.org/2000/svg">
<path d="M33.165 0.702637C38.7993 0.70243 44.2143 2.88599 48.2725 6.79453C52.3306 10.7031 54.7159 16.0324 54.9272 21.6627L54.9417 22.4793H58.5711C60.4024 22.4787 62.1663 23.1704 63.5091 24.4156C64.852 25.6608 65.6745 27.3676 65.8119 29.1938L65.83 29.7382V66.0326C65.8306 67.864 65.1389 69.6278 63.8937 70.9707C62.6485 72.3135 60.9417 73.136 59.1155 73.2734L58.5711 73.2915H7.75889C5.92756 73.2921 4.16368 72.6005 2.82086 71.3552C1.47803 70.11 0.655498 68.4032 0.518148 66.5771L0.5 66.0326V29.7382C0.499421 27.9069 1.19107 26.143 2.4363 24.8002C3.68153 23.4573 5.3883 22.6348 7.21447 22.4975L7.75889 22.4793H11.3883C11.3883 16.7038 13.6827 11.1648 17.7666 7.08087C21.8505 2.99696 27.3895 0.702637 33.165 0.702637ZM58.5711 29.7382H7.75889V66.0326H58.5711V29.7382ZM33.165 36.9971C34.7133 36.9976 36.2209 37.4931 37.4675 38.4113C38.7141 39.3295 39.6345 40.6222 40.0942 42.1007C40.554 43.5791 40.5289 45.1659 40.0227 46.6291C39.5166 48.0923 38.5558 49.3553 37.2808 50.2337L36.7944 50.5422V55.1443C36.7934 56.0694 36.4392 56.9591 35.8042 57.6318C35.1691 58.3045 34.3012 58.7093 33.3777 58.7635C32.4542 58.8177 31.5449 58.5172 30.8355 57.9235C30.1261 57.3298 29.6702 56.4875 29.561 55.569L29.5356 55.1443V50.5422C28.1518 49.7432 27.0703 48.5099 26.4589 47.0336C25.8475 45.5574 25.7402 43.9206 26.1538 42.3772C26.5673 40.8338 27.4786 39.4699 28.7463 38.4972C30.0139 37.5244 31.5671 36.9972 33.165 36.9971ZM33.165 7.96153C29.3146 7.96153 25.622 9.49107 22.8994 12.2137C20.1768 14.9363 18.6472 18.629 18.6472 22.4793H47.6828C47.6828 18.629 46.1532 14.9363 43.4306 12.2137C40.708 9.49107 37.0154 7.96153 33.165 7.96153Z" fill="#089BFF"/>
</svg>
