<svg width="67" height="66" viewBox="0 0 67 66" fill="none" xmlns="http://www.w3.org/2000/svg">
<path d="M33.5013 25.2471C35.903 25.2468 37.9722 24.3863 39.6819 22.6795L33.5013 25.2471ZM33.5013 25.2471C33.5009 25.2471 33.5004 25.2471 33.5 25.2471V24.7471L33.5024 25.2471C33.502 25.2471 33.5017 25.2471 33.5013 25.2471ZM66 54.4465V54.4471V57.7471C66 59.8823 65.2462 61.6984 63.7248 63.2224C62.2038 64.746 60.3883 65.4996 58.2506 65.4971H58.25H8.75C6.61479 65.4971 4.80019 64.7433 3.27905 63.2221C1.75796 61.701 1.00266 59.885 1 57.7467V54.4471C1 52.2004 1.57744 50.1436 2.73262 48.2658C3.89022 46.384 5.42016 44.9524 7.32718 43.9612C11.5565 41.8469 15.8511 40.2632 20.2113 39.2085C24.5728 38.1536 29.0022 37.6248 33.5003 37.6221C37.998 37.6193 42.427 38.1481 46.7881 39.2084C51.1489 40.2686 55.4439 41.8526 59.6737 43.9617C61.5829 44.95 63.1139 46.3814 64.2713 48.2655C65.4266 50.1462 66.0026 52.2029 66 54.4465ZM66.5 54.4471V57.7471C66.5 60.0158 65.6929 61.9587 64.0786 63.5757C62.4644 65.1927 60.5215 65.9998 58.25 65.9971H8.75C6.48125 65.9971 4.53975 65.1899 2.9255 63.5757C1.31125 61.9614 0.50275 60.0186 0.5 57.7471L66.5 54.4471ZM8.25 57.7471V58.2471H8.75H58.25H58.75V57.7471V54.4471C58.75 53.6033 58.5385 52.8252 58.1119 52.1245C57.6909 51.4331 57.1286 50.89 56.4295 50.5033L56.4204 50.4982L56.4111 50.4936C52.6675 48.6218 48.8856 47.2169 45.0659 46.2807C41.2462 45.3445 37.3908 44.8748 33.5004 44.8721C29.6094 44.8693 25.7535 45.339 21.9334 46.2809C18.1142 47.2225 14.3327 48.6272 10.5894 50.4933L10.5794 50.4983L10.5697 50.5037C9.87372 50.8904 9.3122 51.433 8.88891 52.1232C8.45891 52.8242 8.24709 53.6032 8.25 54.4479V57.7471ZM33.5 32.4971C29.0962 32.4971 25.3387 30.9349 22.2004 27.7966C19.0622 24.6584 17.5 20.9009 17.5 16.4971C17.5 12.0932 19.0622 8.33573 22.2004 5.1975C25.3387 2.05927 29.0962 0.49707 33.5 0.49707C37.9038 0.49707 41.6613 2.05927 44.7996 5.1975C47.9378 8.33573 49.5 12.0932 49.5 16.4971C49.5 20.9009 47.9378 24.6584 44.7996 27.7966C41.6613 30.9349 37.9038 32.4971 33.5 32.4971Z" fill="#089BFF" stroke="white"/>
</svg>
