<svg width="67" height="66" viewBox="0 0 67 66" fill="none" xmlns="http://www.w3.org/2000/svg">
<path d="M33.5 32.9971C28.9625 32.9971 25.0781 31.3814 21.8469 28.1502C18.6156 24.9189 17 21.0346 17 16.4971C17 11.9596 18.6156 8.0752 21.8469 4.84395C25.0781 1.6127 28.9625 -0.00292969 33.5 -0.00292969C38.0375 -0.00292969 41.9219 1.6127 45.1531 4.84395C48.3844 8.0752 50 11.9596 50 16.4971C50 21.0346 48.3844 24.9189 45.1531 28.1502C41.9219 31.3814 38.0375 32.9971 33.5 32.9971ZM0.5 57.7471V54.4471C0.5 52.1096 1.10225 49.9618 2.30675 48.0038C3.51125 46.0458 5.109 44.5498 7.1 43.5158C11.3625 41.3846 15.6937 39.7868 20.0937 38.7226C24.4937 37.6583 28.9625 37.1248 33.5 37.1221C38.0375 37.1193 42.5062 37.6528 46.9062 38.7226C51.3062 39.7923 55.6375 41.3901 59.9 43.5158C61.8937 44.5471 63.4929 46.0431 64.6974 48.0038C65.9019 49.9646 66.5027 52.1123 66.5 54.4471V57.7471C66.5 60.0158 65.6929 61.9587 64.0786 63.5757C62.4644 65.1927 60.5215 65.9998 58.25 65.9971H8.75C6.48125 65.9971 4.53975 65.1899 2.9255 63.5757C1.31125 61.9614 0.50275 60.0186 0.5 57.7471ZM8.75 57.7471H58.25V54.4471C58.25 53.6908 58.0616 53.0033 57.6849 52.3846C57.3081 51.7658 56.809 51.2846 56.1875 50.9408C52.475 49.0846 48.7281 47.6931 44.9469 46.7663C41.1656 45.8396 37.35 45.3748 33.5 45.3721C29.65 45.3693 25.8344 45.8341 22.0531 46.7663C18.2719 47.6986 14.525 49.0901 10.8125 50.9408C10.1937 51.2846 9.69462 51.7658 9.31512 52.3846C8.93562 53.0033 8.74725 53.6908 8.75 54.4471V57.7471ZM33.5 24.7471C35.7687 24.7471 37.7116 23.9399 39.3286 22.3257C40.9456 20.7114 41.7527 18.7686 41.75 16.4971C41.7472 14.2256 40.9401 12.2841 39.3286 10.6726C37.7171 9.06107 35.7742 8.25257 33.5 8.24707C31.2257 8.24157 29.2842 9.05007 27.6755 10.6726C26.0667 12.2951 25.2582 14.2366 25.25 16.4971C25.2417 18.7576 26.0502 20.7004 27.6755 22.3257C29.3007 23.9509 31.2422 24.7581 33.5 24.7471Z" fill="#089BFF"/>
</svg>
